<svg width="451" height="237" viewBox="0 0 451 237" fill="none" xmlns="http://www.w3.org/2000/svg">
<path d="M15.563 46.803V66H3.318V11.885H41.554V23.103H15.563V36.059H39.5V46.803H15.563ZM65.5033 24.683C68.6107 24.683 71.481 25.236 74.1143 26.342C76.8003 27.448 79.1177 28.949 81.0663 30.845C83.015 32.741 84.5423 34.9793 85.6483 37.56C86.7543 40.1407 87.3073 42.9057 87.3073 45.855C87.3073 48.8043 86.7543 51.5693 85.6483 54.15C84.5423 56.678 83.015 58.89 81.0663 60.786C79.1177 62.682 76.8003 64.183 74.1143 65.289C71.481 66.395 68.6107 66.948 65.5033 66.948C62.396 66.948 59.4993 66.4213 56.8133 65.368C54.18 64.262 51.889 62.761 49.9403 60.865C47.9917 58.969 46.4643 56.7307 45.3583 54.15C44.305 51.5693 43.7783 48.8043 43.7783 45.855C43.7783 42.9057 44.3313 40.1407 45.4373 37.56C46.5433 34.9793 48.0443 32.741 49.9403 30.845C51.889 28.949 54.18 27.448 56.8133 26.342C59.4993 25.236 62.396 24.683 65.5033 24.683ZM65.5033 34.637C63.976 34.637 62.5277 34.9267 61.1583 35.506C59.8417 36.0327 58.683 36.7963 57.6823 37.797C56.7343 38.7977 55.9707 39.9827 55.3913 41.352C54.8647 42.7213 54.6013 44.2223 54.6013 45.855C54.6013 47.4877 54.8647 48.9887 55.3913 50.358C55.918 51.7273 56.6553 52.9123 57.6033 53.913C58.5513 54.9137 59.6837 55.7037 61.0003 56.283C62.317 56.8623 63.739 57.152 65.2663 57.152C66.7937 57.152 68.242 56.8623 69.6113 56.283C70.9807 55.7037 72.1657 54.9137 73.1663 53.913C74.167 52.9123 74.957 51.7273 75.5363 50.358C76.1157 48.9887 76.4053 47.4877 76.4053 45.855C76.4053 44.2223 76.1157 42.7213 75.5363 41.352C75.0097 39.9827 74.246 38.7977 73.2453 37.797C72.2973 36.7963 71.1387 36.0327 69.7693 35.506C68.4527 34.9267 67.0307 34.637 65.5033 34.637ZM90.8556 21.997V11.885H101.837V21.997H90.8556ZM90.8556 66V25.473H101.837V66H90.8556ZM106.285 66V11.885H117.345V66H106.285ZM121.792 66V54.545H133.168V66H121.792ZM150.562 31.714V66H138.791V11.885H152.142L173.946 46.25V11.885H185.717V66H172.366L150.562 31.714ZM231.042 57.31C229.04 60.312 226.46 62.682 223.3 64.42C220.192 66.1053 216.374 66.948 211.845 66.948C208.579 66.948 205.63 66.4213 202.997 65.368C200.416 64.262 198.178 62.7873 196.282 60.944C194.438 59.048 193.016 56.8097 192.016 54.229C191.015 51.6483 190.515 48.857 190.515 45.855C190.515 42.9583 191.015 40.2197 192.016 37.639C193.069 35.0583 194.544 32.82 196.44 30.924C198.336 28.9753 200.6 27.448 203.234 26.342C205.867 25.236 208.764 24.683 211.924 24.683C215.136 24.683 218.007 25.2097 220.535 26.263C223.063 27.3163 225.196 28.7647 226.934 30.608C228.724 32.4513 230.094 34.637 231.042 37.165C231.99 39.6403 232.464 42.3527 232.464 45.302C232.464 46.092 232.437 46.9083 232.385 47.751C232.332 48.5937 232.306 49.0677 232.306 49.173H201.338C201.917 51.7537 203.128 53.8077 204.972 55.335C206.868 56.8623 209.238 57.626 212.082 57.626C214.557 57.626 216.664 57.152 218.402 56.204C220.192 55.2033 221.667 53.8867 222.826 52.254L231.042 57.31ZM211.845 33.689C209.264 33.689 207.105 34.3473 205.367 35.664C203.681 36.928 202.47 38.7187 201.733 41.036H221.404C220.824 38.5607 219.639 36.7173 217.849 35.506C216.058 34.2947 214.057 33.689 211.845 33.689ZM260.269 25.473V35.269H250.315V51.543C250.315 53.3863 250.737 54.703 251.579 55.493C252.475 56.2303 253.844 56.599 255.687 56.599H260.269V66H254.897C249.473 66 245.523 64.8413 243.047 62.524C240.572 60.154 239.334 56.678 239.334 52.096V35.269H233.488V25.473H239.334V15.045H250.315V25.473H260.269ZM292.723 42.853L287.193 66H273.289L262.94 25.473H274L280.636 53.36L287.509 25.473H298.569L305.363 53.518L312.078 25.473H322.743L312.315 66H298.253L292.723 42.853ZM344.395 24.683C347.502 24.683 350.373 25.236 353.006 26.342C355.692 27.448 358.009 28.949 359.958 30.845C361.907 32.741 363.434 34.9793 364.54 37.56C365.646 40.1407 366.199 42.9057 366.199 45.855C366.199 48.8043 365.646 51.5693 364.54 54.15C363.434 56.678 361.907 58.89 359.958 60.786C358.009 62.682 355.692 64.183 353.006 65.289C350.373 66.395 347.502 66.948 344.395 66.948C341.288 66.948 338.391 66.4213 335.705 65.368C333.072 64.262 330.781 62.761 328.832 60.865C326.883 58.969 325.356 56.7307 324.25 54.15C323.197 51.5693 322.67 48.8043 322.67 45.855C322.67 42.9057 323.223 40.1407 324.329 37.56C325.435 34.9793 326.936 32.741 328.832 30.845C330.781 28.949 333.072 27.448 335.705 26.342C338.391 25.236 341.288 24.683 344.395 24.683ZM344.395 34.637C342.868 34.637 341.419 34.9267 340.05 35.506C338.733 36.0327 337.575 36.7963 336.574 37.797C335.626 38.7977 334.862 39.9827 334.283 41.352C333.756 42.7213 333.493 44.2223 333.493 45.855C333.493 47.4877 333.756 48.9887 334.283 50.358C334.81 51.7273 335.547 52.9123 336.495 53.913C337.443 54.9137 338.575 55.7037 339.892 56.283C341.209 56.8623 342.631 57.152 344.158 57.152C345.685 57.152 347.134 56.8623 348.503 56.283C349.872 55.7037 351.057 54.9137 352.058 53.913C353.059 52.9123 353.849 51.7273 354.428 50.358C355.007 48.9887 355.297 47.4877 355.297 45.855C355.297 44.2223 355.007 42.7213 354.428 41.352C353.901 39.9827 353.138 38.7977 352.137 37.797C351.189 36.7963 350.03 36.0327 348.661 35.506C347.344 34.9267 345.922 34.637 344.395 34.637ZM369.747 66V25.473H380.728V31.003C382.097 29.1597 383.756 27.685 385.705 26.579C387.706 25.473 389.971 24.92 392.499 24.92V35.98C388.444 35.98 385.468 37.0333 383.572 39.14C381.729 41.194 380.807 43.9853 380.807 47.514V66H369.747ZM420.931 25.473H433.413L417.85 45.618L434.045 66H420.378L407.501 49.331V66H396.441V11.885H407.501V43.643L420.931 25.473Z" fill="white"/>
<path d="M3.318 90.885H25.596C28.598 90.885 31.205 91.28 33.417 92.07C35.629 92.86 37.446 93.9397 38.868 95.309C40.29 96.6257 41.3433 98.1793 42.028 99.97C42.7127 101.708 43.055 103.578 43.055 105.579C43.055 108.002 42.4757 110.161 41.317 112.057C40.211 113.9 38.5257 115.401 36.261 116.56C39.6843 117.613 42.265 119.246 44.003 121.458C45.7937 123.67 46.689 126.356 46.689 129.516C46.689 131.728 46.294 133.782 45.504 135.678C44.714 137.574 43.529 139.207 41.949 140.576C40.369 141.945 38.394 143.025 36.024 143.815C33.654 144.605 30.8627 145 27.65 145H3.318V90.885ZM15.563 101.392V112.452H24.727C26.8337 112.452 28.4137 111.925 29.467 110.872C30.5203 109.819 31.047 108.476 31.047 106.843C31.047 105.263 30.5203 103.973 29.467 102.972C28.4137 101.919 26.8337 101.392 24.727 101.392H15.563ZM15.563 122.801V134.493H27.018C29.388 134.493 31.205 133.966 32.469 132.913C33.7857 131.86 34.444 130.49 34.444 128.805C34.444 127.014 33.7857 125.566 32.469 124.46C31.205 123.354 29.3617 122.801 26.939 122.801H15.563ZM71.5981 103.683C74.7054 103.683 77.5757 104.236 80.2091 105.342C82.8951 106.448 85.2124 107.949 87.1611 109.845C89.1097 111.741 90.6371 113.979 91.7431 116.56C92.8491 119.141 93.4021 121.906 93.4021 124.855C93.4021 127.804 92.8491 130.569 91.7431 133.15C90.6371 135.678 89.1097 137.89 87.1611 139.786C85.2124 141.682 82.8951 143.183 80.2091 144.289C77.5757 145.395 74.7054 145.948 71.5981 145.948C68.4907 145.948 65.5941 145.421 62.9081 144.368C60.2747 143.262 57.9837 141.761 56.0351 139.865C54.0864 137.969 52.5591 135.731 51.4531 133.15C50.3997 130.569 49.8731 127.804 49.8731 124.855C49.8731 121.906 50.4261 119.141 51.5321 116.56C52.6381 113.979 54.1391 111.741 56.0351 109.845C57.9837 107.949 60.2747 106.448 62.9081 105.342C65.5941 104.236 68.4907 103.683 71.5981 103.683ZM71.5981 113.637C70.0707 113.637 68.6224 113.927 67.2531 114.506C65.9364 115.033 64.7777 115.796 63.7771 116.797C62.8291 117.798 62.0654 118.983 61.4861 120.352C60.9594 121.721 60.6961 123.222 60.6961 124.855C60.6961 126.488 60.9594 127.989 61.4861 129.358C62.0127 130.727 62.7501 131.912 63.6981 132.913C64.6461 133.914 65.7784 134.704 67.0951 135.283C68.4117 135.862 69.8337 136.152 71.3611 136.152C72.8884 136.152 74.3367 135.862 75.7061 135.283C77.0754 134.704 78.2604 133.914 79.2611 132.913C80.2617 131.912 81.0517 130.727 81.6311 129.358C82.2104 127.989 82.5001 126.488 82.5001 124.855C82.5001 123.222 82.2104 121.721 81.6311 120.352C81.1044 118.983 80.3407 117.798 79.3401 116.797C78.3921 115.796 77.2334 115.033 75.8641 114.506C74.5474 113.927 73.1254 113.637 71.5981 113.637ZM124.363 145V140.971C122.994 142.446 121.309 143.604 119.307 144.447C117.306 145.29 115.068 145.711 112.592 145.711C110.222 145.711 108.063 145.316 106.114 144.526C104.218 143.736 102.586 142.63 101.216 141.208C99.8469 139.786 98.7936 138.074 98.0563 136.073C97.3189 134.072 96.9503 131.833 96.9503 129.358V104.473H107.852V127.462C107.852 129.885 108.511 131.86 109.827 133.387C111.144 134.862 112.987 135.599 115.357 135.599C118.043 135.599 120.203 134.809 121.835 133.229C123.468 131.649 124.284 129.437 124.284 126.593V104.473H135.186V145H124.363ZM150.436 108.581C151.437 107.422 152.938 106.343 154.939 105.342C156.941 104.289 159.363 103.762 162.207 103.762C164.577 103.762 166.71 104.157 168.606 104.947C170.555 105.737 172.214 106.843 173.583 108.265C174.953 109.687 176.006 111.425 176.743 113.479C177.481 115.48 177.849 117.692 177.849 120.115V145H166.947V122.011C166.947 119.588 166.289 117.64 164.972 116.165C163.708 114.638 161.891 113.874 159.521 113.874C156.835 113.874 154.676 114.664 153.043 116.244C151.411 117.824 150.594 120.036 150.594 122.88V145H139.613V104.473H150.436V108.581ZM207.114 104.473V114.269H197.16V130.543C197.16 132.386 197.581 133.703 198.424 134.493C199.319 135.23 200.689 135.599 202.532 135.599H207.114V145H201.742C196.317 145 192.367 143.841 189.892 141.524C187.417 139.154 186.179 135.678 186.179 131.096V114.269H180.333V104.473H186.179V94.045H197.16V104.473H207.114ZM236.566 143.578C235.618 146.264 234.565 148.581 233.406 150.53C232.3 152.479 231.01 154.085 229.535 155.349C228.06 156.613 226.375 157.535 224.479 158.114C222.583 158.693 220.397 158.983 217.922 158.983H213.972V149.108H217.29C219.133 149.108 220.661 148.634 221.872 147.686C223.083 146.738 224.058 145.474 224.795 143.894L209.706 104.473H222.267L230.562 129.437L238.778 104.473H250.154L236.566 143.578ZM304.944 123.828H282.034V145H269.789V90.885H282.034V112.61H304.944V90.885H317.189V145H304.944V123.828ZM350.1 145V140.971C348.73 142.446 347.045 143.604 345.044 144.447C343.042 145.29 340.804 145.711 338.329 145.711C335.959 145.711 333.799 145.316 331.851 144.526C329.955 143.736 328.322 142.63 326.953 141.208C325.583 139.786 324.53 138.074 323.793 136.073C323.055 134.072 322.687 131.833 322.687 129.358V104.473H333.589V127.462C333.589 129.885 334.247 131.86 335.564 133.387C336.88 134.862 338.724 135.599 341.094 135.599C343.78 135.599 345.939 134.809 347.572 133.229C349.204 131.649 350.021 129.437 350.021 126.593V104.473H360.923V145H350.1ZM376.173 108.581C377.173 107.422 378.674 106.343 380.676 105.342C382.677 104.289 385.1 103.762 387.944 103.762C390.314 103.762 392.447 104.157 394.343 104.947C396.291 105.737 397.95 106.843 399.32 108.265C400.689 109.687 401.742 111.425 402.48 113.479C403.217 115.48 403.586 117.692 403.586 120.115V145H392.684V122.011C392.684 119.588 392.025 117.64 390.709 116.165C389.445 114.638 387.628 113.874 385.258 113.874C382.572 113.874 380.412 114.664 378.78 116.244C377.147 117.824 376.331 120.036 376.331 122.88V145H365.35V104.473H376.173V108.581ZM432.85 104.473V114.269H422.896V130.543C422.896 132.386 423.318 133.703 424.16 134.493C425.056 135.23 426.425 135.599 428.268 135.599H432.85V145H427.478C422.054 145 418.104 143.841 415.628 141.524C413.153 139.154 411.915 135.678 411.915 131.096V114.269H406.069V104.473H411.915V94.045H422.896V104.473H432.85ZM19.987 182.868C19.987 184.079 20.303 185.264 20.935 186.423C21.567 187.582 22.357 188.688 23.305 189.741C24.411 189.32 25.4117 188.872 26.307 188.398C27.255 187.871 28.0713 187.318 28.756 186.739C29.4933 186.16 30.0463 185.501 30.415 184.764C30.8363 183.974 31.047 183.079 31.047 182.078C31.047 180.551 30.5467 179.339 29.546 178.444C28.598 177.496 27.3603 177.022 25.833 177.022C24.3057 177.022 22.9363 177.522 21.725 178.523C20.5663 179.524 19.987 180.972 19.987 182.868ZM19.592 200.643C18.012 201.486 16.7217 202.434 15.721 203.487C14.7203 204.54 14.22 205.91 14.22 207.595C14.22 209.754 15.0627 211.413 16.748 212.572C18.4333 213.678 20.5927 214.231 23.226 214.231C26.1227 214.231 28.7297 213.625 31.047 212.414L19.592 200.643ZM38.394 219.84C36.2873 221.104 33.9437 222.105 31.363 222.842C28.7823 223.527 25.9647 223.869 22.91 223.869C19.908 223.869 17.1693 223.527 14.694 222.842C12.2187 222.157 10.0857 221.13 8.295 219.761C6.557 218.392 5.18767 216.733 4.187 214.784C3.18633 212.783 2.686 210.465 2.686 207.832C2.686 204.145 3.66033 201.17 5.609 198.905C7.61033 196.64 10.2437 194.797 13.509 193.375C12.403 191.953 11.4287 190.373 10.586 188.635C9.74333 186.897 9.322 185.027 9.322 183.026C9.322 180.814 9.717 178.786 10.507 176.943C11.297 175.047 12.403 173.441 13.825 172.124C15.2997 170.755 17.0377 169.701 19.039 168.964C21.093 168.227 23.3577 167.858 25.833 167.858C28.1503 167.858 30.257 168.2 32.153 168.885C34.1017 169.57 35.7607 170.518 37.13 171.729C38.4993 172.94 39.5527 174.362 40.29 175.995C41.08 177.628 41.475 179.418 41.475 181.367C41.475 183.474 41.1327 185.317 40.448 186.897C39.816 188.424 38.947 189.794 37.841 191.005C36.735 192.164 35.4447 193.191 33.97 194.086C32.548 194.929 31.0207 195.692 29.388 196.377L38.552 205.462C40.132 203.092 41.3697 200.459 42.265 197.562C43.1603 194.613 43.687 191.742 43.845 188.951H54.668C54.352 193.006 53.5357 197.167 52.219 201.433C50.9023 205.646 48.9273 209.491 46.294 212.967L56.406 223H41.475L38.394 219.84ZM100.07 181.683L93.0392 202.855H107.101L100.07 181.683ZM110.735 213.678H89.4842L86.4032 223H73.8422L92.9602 168.885H107.97L127.009 223H113.816L110.735 213.678ZM129.661 178.997V168.885H140.642V178.997H129.661ZM129.661 223V182.473H140.642V223H129.661ZM145.091 223V182.473H156.072V188.003C157.441 186.16 159.1 184.685 161.049 183.579C163.05 182.473 165.315 181.92 167.843 181.92V192.98C163.788 192.98 160.812 194.033 158.916 196.14C157.073 198.194 156.151 200.985 156.151 204.514V223H145.091ZM189.705 213.836C191.285 213.836 192.733 213.573 194.05 213.046C195.419 212.467 196.604 211.677 197.605 210.676C198.606 209.675 199.369 208.517 199.896 207.2C200.475 205.883 200.765 204.461 200.765 202.934C200.765 201.459 200.475 200.064 199.896 198.747C199.317 197.378 198.527 196.219 197.526 195.271C196.525 194.27 195.34 193.48 193.971 192.901C192.654 192.322 191.232 192.032 189.705 192.032C188.178 192.032 186.756 192.322 185.439 192.901C184.175 193.48 183.069 194.27 182.121 195.271C181.173 196.219 180.409 197.378 179.83 198.747C179.303 200.064 179.04 201.459 179.04 202.934C179.04 204.461 179.303 205.883 179.83 207.2C180.409 208.517 181.173 209.675 182.121 210.676C183.069 211.677 184.175 212.467 185.439 213.046C186.756 213.573 188.178 213.836 189.705 213.836ZM200.607 219.998C199.185 221.104 197.421 221.973 195.314 222.605C193.26 223.237 191.074 223.553 188.757 223.553C185.966 223.553 183.332 223.026 180.857 221.973C178.382 220.92 176.222 219.471 174.379 217.628C172.536 215.785 171.061 213.625 169.955 211.15C168.849 208.622 168.296 205.883 168.296 202.934C168.296 200.037 168.849 197.325 169.955 194.797C171.061 192.216 172.536 190.004 174.379 188.161C176.222 186.265 178.382 184.79 180.857 183.737C183.332 182.631 185.966 182.078 188.757 182.078C191.074 182.078 193.26 182.42 195.314 183.105C197.421 183.737 199.185 184.606 200.607 185.712V168.885H211.588V223H200.607V219.998ZM215.99 223V182.473H226.971V188.003C228.341 186.16 230 184.685 231.948 183.579C233.95 182.473 236.214 181.92 238.742 181.92V192.98C234.687 192.98 231.711 194.033 229.815 196.14C227.972 198.194 227.05 200.985 227.05 204.514V223H215.99ZM260.92 181.683C264.028 181.683 266.898 182.236 269.531 183.342C272.217 184.448 274.535 185.949 276.483 187.845C278.432 189.741 279.959 191.979 281.065 194.56C282.171 197.141 282.724 199.906 282.724 202.855C282.724 205.804 282.171 208.569 281.065 211.15C279.959 213.678 278.432 215.89 276.483 217.786C274.535 219.682 272.217 221.183 269.531 222.289C266.898 223.395 264.028 223.948 260.92 223.948C257.813 223.948 254.916 223.421 252.23 222.368C249.597 221.262 247.306 219.761 245.357 217.865C243.409 215.969 241.881 213.731 240.775 211.15C239.722 208.569 239.195 205.804 239.195 202.855C239.195 199.906 239.748 197.141 240.854 194.56C241.96 191.979 243.461 189.741 245.357 187.845C247.306 185.949 249.597 184.448 252.23 183.342C254.916 182.236 257.813 181.683 260.92 181.683ZM260.92 191.637C259.393 191.637 257.945 191.927 256.575 192.506C255.259 193.033 254.1 193.796 253.099 194.797C252.151 195.798 251.388 196.983 250.808 198.352C250.282 199.721 250.018 201.222 250.018 202.855C250.018 204.488 250.282 205.989 250.808 207.358C251.335 208.727 252.072 209.912 253.02 210.913C253.968 211.914 255.101 212.704 256.417 213.283C257.734 213.862 259.156 214.152 260.683 214.152C262.211 214.152 263.659 213.862 265.028 213.283C266.398 212.704 267.583 211.914 268.583 210.913C269.584 209.912 270.374 208.727 270.953 207.358C271.533 205.989 271.822 204.488 271.822 202.855C271.822 201.222 271.533 199.721 270.953 198.352C270.427 196.983 269.663 195.798 268.662 194.797C267.714 193.796 266.556 193.033 265.186 192.506C263.87 191.927 262.448 191.637 260.92 191.637ZM308.156 192.032C306.576 192.032 305.101 192.322 303.732 192.901C302.415 193.428 301.256 194.191 300.256 195.192C299.255 196.193 298.465 197.351 297.886 198.668C297.359 199.985 297.096 201.407 297.096 202.934C297.096 204.461 297.385 205.883 297.965 207.2C298.544 208.517 299.334 209.675 300.335 210.676C301.335 211.624 302.494 212.388 303.811 212.967C305.18 213.546 306.628 213.836 308.156 213.836C309.63 213.836 311.026 213.546 312.343 212.967C313.659 212.388 314.792 211.624 315.74 210.676C316.688 209.675 317.425 208.517 317.952 207.2C318.531 205.883 318.821 204.461 318.821 202.934C318.821 201.407 318.531 199.985 317.952 198.668C317.425 197.351 316.688 196.193 315.74 195.192C314.792 194.191 313.659 193.428 312.343 192.901C311.026 192.322 309.63 192.032 308.156 192.032ZM309.104 223.553C306.786 223.553 304.574 223.237 302.468 222.605C300.414 221.92 298.676 221.025 297.254 219.919V236.904H286.273V182.473H297.254V185.633C298.676 184.527 300.414 183.658 302.468 183.026C304.574 182.394 306.786 182.078 309.104 182.078C311.842 182.078 314.449 182.605 316.925 183.658C319.453 184.711 321.638 186.16 323.482 188.003C325.325 189.846 326.8 192.032 327.906 194.56C329.012 197.088 329.565 199.8 329.565 202.697C329.565 205.646 329.012 208.385 327.906 210.913C326.8 213.441 325.325 215.653 323.482 217.549C321.638 219.392 319.453 220.867 316.925 221.973C314.449 223.026 311.842 223.553 309.104 223.553Z" fill="white"/>
<path d="M3.318 90.885H25.596C28.598 90.885 31.205 91.28 33.417 92.07C35.629 92.86 37.446 93.9397 38.868 95.309C40.29 96.6257 41.3433 98.1793 42.028 99.97C42.7127 101.708 43.055 103.578 43.055 105.579C43.055 108.002 42.4757 110.161 41.317 112.057C40.211 113.9 38.5257 115.401 36.261 116.56C39.6843 117.613 42.265 119.246 44.003 121.458C45.7937 123.67 46.689 126.356 46.689 129.516C46.689 131.728 46.294 133.782 45.504 135.678C44.714 137.574 43.529 139.207 41.949 140.576C40.369 141.945 38.394 143.025 36.024 143.815C33.654 144.605 30.8627 145 27.65 145H3.318V90.885ZM15.563 101.392V112.452H24.727C26.8337 112.452 28.4137 111.925 29.467 110.872C30.5203 109.819 31.047 108.476 31.047 106.843C31.047 105.263 30.5203 103.973 29.467 102.972C28.4137 101.919 26.8337 101.392 24.727 101.392H15.563ZM15.563 122.801V134.493H27.018C29.388 134.493 31.205 133.966 32.469 132.913C33.7857 131.86 34.444 130.49 34.444 128.805C34.444 127.014 33.7857 125.566 32.469 124.46C31.205 123.354 29.3617 122.801 26.939 122.801H15.563ZM71.5981 103.683C74.7054 103.683 77.5757 104.236 80.2091 105.342C82.8951 106.448 85.2124 107.949 87.1611 109.845C89.1097 111.741 90.6371 113.979 91.7431 116.56C92.8491 119.141 93.4021 121.906 93.4021 124.855C93.4021 127.804 92.8491 130.569 91.7431 133.15C90.6371 135.678 89.1097 137.89 87.1611 139.786C85.2124 141.682 82.8951 143.183 80.2091 144.289C77.5757 145.395 74.7054 145.948 71.5981 145.948C68.4907 145.948 65.5941 145.421 62.9081 144.368C60.2747 143.262 57.9837 141.761 56.0351 139.865C54.0864 137.969 52.5591 135.731 51.4531 133.15C50.3997 130.569 49.8731 127.804 49.8731 124.855C49.8731 121.906 50.4261 119.141 51.5321 116.56C52.6381 113.979 54.1391 111.741 56.0351 109.845C57.9837 107.949 60.2747 106.448 62.9081 105.342C65.5941 104.236 68.4907 103.683 71.5981 103.683ZM71.5981 113.637C70.0707 113.637 68.6224 113.927 67.2531 114.506C65.9364 115.033 64.7777 115.796 63.7771 116.797C62.8291 117.798 62.0654 118.983 61.4861 120.352C60.9594 121.721 60.6961 123.222 60.6961 124.855C60.6961 126.488 60.9594 127.989 61.4861 129.358C62.0127 130.727 62.7501 131.912 63.6981 132.913C64.6461 133.914 65.7784 134.704 67.0951 135.283C68.4117 135.862 69.8337 136.152 71.3611 136.152C72.8884 136.152 74.3367 135.862 75.7061 135.283C77.0754 134.704 78.2604 133.914 79.2611 132.913C80.2617 131.912 81.0517 130.727 81.6311 129.358C82.2104 127.989 82.5001 126.488 82.5001 124.855C82.5001 123.222 82.2104 121.721 81.6311 120.352C81.1044 118.983 80.3407 117.798 79.3401 116.797C78.3921 115.796 77.2334 115.033 75.8641 114.506C74.5474 113.927 73.1254 113.637 71.5981 113.637ZM124.363 145V140.971C122.994 142.446 121.309 143.604 119.307 144.447C117.306 145.29 115.068 145.711 112.592 145.711C110.222 145.711 108.063 145.316 106.114 144.526C104.218 143.736 102.586 142.63 101.216 141.208C99.8469 139.786 98.7936 138.074 98.0563 136.073C97.3189 134.072 96.9503 131.833 96.9503 129.358V104.473H107.852V127.462C107.852 129.885 108.511 131.86 109.827 133.387C111.144 134.862 112.987 135.599 115.357 135.599C118.043 135.599 120.203 134.809 121.835 133.229C123.468 131.649 124.284 129.437 124.284 126.593V104.473H135.186V145H124.363ZM150.436 108.581C151.437 107.422 152.938 106.343 154.939 105.342C156.941 104.289 159.363 103.762 162.207 103.762C164.577 103.762 166.71 104.157 168.606 104.947C170.555 105.737 172.214 106.843 173.583 108.265C174.953 109.687 176.006 111.425 176.743 113.479C177.481 115.48 177.849 117.692 177.849 120.115V145H166.947V122.011C166.947 119.588 166.289 117.64 164.972 116.165C163.708 114.638 161.891 113.874 159.521 113.874C156.835 113.874 154.676 114.664 153.043 116.244C151.411 117.824 150.594 120.036 150.594 122.88V145H139.613V104.473H150.436V108.581ZM207.114 104.473V114.269H197.16V130.543C197.16 132.386 197.581 133.703 198.424 134.493C199.319 135.23 200.689 135.599 202.532 135.599H207.114V145H201.742C196.317 145 192.367 143.841 189.892 141.524C187.417 139.154 186.179 135.678 186.179 131.096V114.269H180.333V104.473H186.179V94.045H197.16V104.473H207.114ZM236.566 143.578C235.618 146.264 234.565 148.581 233.406 150.53C232.3 152.479 231.01 154.085 229.535 155.349C228.06 156.613 226.375 157.535 224.479 158.114C222.583 158.693 220.397 158.983 217.922 158.983H213.972V149.108H217.29C219.133 149.108 220.661 148.634 221.872 147.686C223.083 146.738 224.058 145.474 224.795 143.894L209.706 104.473H222.267L230.562 129.437L238.778 104.473H250.154L236.566 143.578ZM304.944 123.828H282.034V145H269.789V90.885H282.034V112.61H304.944V90.885H317.189V145H304.944V123.828ZM350.1 145V140.971C348.73 142.446 347.045 143.604 345.044 144.447C343.042 145.29 340.804 145.711 338.329 145.711C335.959 145.711 333.799 145.316 331.851 144.526C329.955 143.736 328.322 142.63 326.953 141.208C325.583 139.786 324.53 138.074 323.793 136.073C323.055 134.072 322.687 131.833 322.687 129.358V104.473H333.589V127.462C333.589 129.885 334.247 131.86 335.564 133.387C336.88 134.862 338.724 135.599 341.094 135.599C343.78 135.599 345.939 134.809 347.572 133.229C349.204 131.649 350.021 129.437 350.021 126.593V104.473H360.923V145H350.1ZM376.173 108.581C377.173 107.422 378.674 106.343 380.676 105.342C382.677 104.289 385.1 103.762 387.944 103.762C390.314 103.762 392.447 104.157 394.343 104.947C396.291 105.737 397.95 106.843 399.32 108.265C400.689 109.687 401.742 111.425 402.48 113.479C403.217 115.48 403.586 117.692 403.586 120.115V145H392.684V122.011C392.684 119.588 392.025 117.64 390.709 116.165C389.445 114.638 387.628 113.874 385.258 113.874C382.572 113.874 380.412 114.664 378.78 116.244C377.147 117.824 376.331 120.036 376.331 122.88V145H365.35V104.473H376.173V108.581ZM432.85 104.473V114.269H422.896V130.543C422.896 132.386 423.318 133.703 424.16 134.493C425.056 135.23 426.425 135.599 428.268 135.599H432.85V145H427.478C422.054 145 418.104 143.841 415.628 141.524C413.153 139.154 411.915 135.678 411.915 131.096V114.269H406.069V104.473H411.915V94.045H422.896V104.473H432.85ZM19.987 182.868C19.987 184.079 20.303 185.264 20.935 186.423C21.567 187.582 22.357 188.688 23.305 189.741C24.411 189.32 25.4117 188.872 26.307 188.398C27.255 187.871 28.0713 187.318 28.756 186.739C29.4933 186.16 30.0463 185.501 30.415 184.764C30.8363 183.974 31.047 183.079 31.047 182.078C31.047 180.551 30.5467 179.339 29.546 178.444C28.598 177.496 27.3603 177.022 25.833 177.022C24.3057 177.022 22.9363 177.522 21.725 178.523C20.5663 179.524 19.987 180.972 19.987 182.868ZM19.592 200.643C18.012 201.486 16.7217 202.434 15.721 203.487C14.7203 204.54 14.22 205.91 14.22 207.595C14.22 209.754 15.0627 211.413 16.748 212.572C18.4333 213.678 20.5927 214.231 23.226 214.231C26.1227 214.231 28.7297 213.625 31.047 212.414L19.592 200.643ZM38.394 219.84C36.2873 221.104 33.9437 222.105 31.363 222.842C28.7823 223.527 25.9647 223.869 22.91 223.869C19.908 223.869 17.1693 223.527 14.694 222.842C12.2187 222.157 10.0857 221.13 8.295 219.761C6.557 218.392 5.18767 216.733 4.187 214.784C3.18633 212.783 2.686 210.465 2.686 207.832C2.686 204.145 3.66033 201.17 5.609 198.905C7.61033 196.64 10.2437 194.797 13.509 193.375C12.403 191.953 11.4287 190.373 10.586 188.635C9.74333 186.897 9.322 185.027 9.322 183.026C9.322 180.814 9.717 178.786 10.507 176.943C11.297 175.047 12.403 173.441 13.825 172.124C15.2997 170.755 17.0377 169.701 19.039 168.964C21.093 168.227 23.3577 167.858 25.833 167.858C28.1503 167.858 30.257 168.2 32.153 168.885C34.1017 169.57 35.7607 170.518 37.13 171.729C38.4993 172.94 39.5527 174.362 40.29 175.995C41.08 177.628 41.475 179.418 41.475 181.367C41.475 183.474 41.1327 185.317 40.448 186.897C39.816 188.424 38.947 189.794 37.841 191.005C36.735 192.164 35.4447 193.191 33.97 194.086C32.548 194.929 31.0207 195.692 29.388 196.377L38.552 205.462C40.132 203.092 41.3697 200.459 42.265 197.562C43.1603 194.613 43.687 191.742 43.845 188.951H54.668C54.352 193.006 53.5357 197.167 52.219 201.433C50.9023 205.646 48.9273 209.491 46.294 212.967L56.406 223H41.475L38.394 219.84ZM100.07 181.683L93.0392 202.855H107.101L100.07 181.683ZM110.735 213.678H89.4842L86.4032 223H73.8422L92.9602 168.885H107.97L127.009 223H113.816L110.735 213.678ZM129.661 178.997V168.885H140.642V178.997H129.661ZM129.661 223V182.473H140.642V223H129.661ZM145.091 223V182.473H156.072V188.003C157.441 186.16 159.1 184.685 161.049 183.579C163.05 182.473 165.315 181.92 167.843 181.92V192.98C163.788 192.98 160.812 194.033 158.916 196.14C157.073 198.194 156.151 200.985 156.151 204.514V223H145.091ZM189.705 213.836C191.285 213.836 192.733 213.573 194.05 213.046C195.419 212.467 196.604 211.677 197.605 210.676C198.606 209.675 199.369 208.517 199.896 207.2C200.475 205.883 200.765 204.461 200.765 202.934C200.765 201.459 200.475 200.064 199.896 198.747C199.317 197.378 198.527 196.219 197.526 195.271C196.525 194.27 195.34 193.48 193.971 192.901C192.654 192.322 191.232 192.032 189.705 192.032C188.178 192.032 186.756 192.322 185.439 192.901C184.175 193.48 183.069 194.27 182.121 195.271C181.173 196.219 180.409 197.378 179.83 198.747C179.303 200.064 179.04 201.459 179.04 202.934C179.04 204.461 179.303 205.883 179.83 207.2C180.409 208.517 181.173 209.675 182.121 210.676C183.069 211.677 184.175 212.467 185.439 213.046C186.756 213.573 188.178 213.836 189.705 213.836ZM200.607 219.998C199.185 221.104 197.421 221.973 195.314 222.605C193.26 223.237 191.074 223.553 188.757 223.553C185.966 223.553 183.332 223.026 180.857 221.973C178.382 220.92 176.222 219.471 174.379 217.628C172.536 215.785 171.061 213.625 169.955 211.15C168.849 208.622 168.296 205.883 168.296 202.934C168.296 200.037 168.849 197.325 169.955 194.797C171.061 192.216 172.536 190.004 174.379 188.161C176.222 186.265 178.382 184.79 180.857 183.737C183.332 182.631 185.966 182.078 188.757 182.078C191.074 182.078 193.26 182.42 195.314 183.105C197.421 183.737 199.185 184.606 200.607 185.712V168.885H211.588V223H200.607V219.998ZM215.99 223V182.473H226.971V188.003C228.341 186.16 230 184.685 231.948 183.579C233.95 182.473 236.214 181.92 238.742 181.92V192.98C234.687 192.98 231.711 194.033 229.815 196.14C227.972 198.194 227.05 200.985 227.05 204.514V223H215.99ZM260.92 181.683C264.028 181.683 266.898 182.236 269.531 183.342C272.217 184.448 274.535 185.949 276.483 187.845C278.432 189.741 279.959 191.979 281.065 194.56C282.171 197.141 282.724 199.906 282.724 202.855C282.724 205.804 282.171 208.569 281.065 211.15C279.959 213.678 278.432 215.89 276.483 217.786C274.535 219.682 272.217 221.183 269.531 222.289C266.898 223.395 264.028 223.948 260.92 223.948C257.813 223.948 254.916 223.421 252.23 222.368C249.597 221.262 247.306 219.761 245.357 217.865C243.409 215.969 241.881 213.731 240.775 211.15C239.722 208.569 239.195 205.804 239.195 202.855C239.195 199.906 239.748 197.141 240.854 194.56C241.96 191.979 243.461 189.741 245.357 187.845C247.306 185.949 249.597 184.448 252.23 183.342C254.916 182.236 257.813 181.683 260.92 181.683ZM260.92 191.637C259.393 191.637 257.945 191.927 256.575 192.506C255.259 193.033 254.1 193.796 253.099 194.797C252.151 195.798 251.388 196.983 250.808 198.352C250.282 199.721 250.018 201.222 250.018 202.855C250.018 204.488 250.282 205.989 250.808 207.358C251.335 208.727 252.072 209.912 253.02 210.913C253.968 211.914 255.101 212.704 256.417 213.283C257.734 213.862 259.156 214.152 260.683 214.152C262.211 214.152 263.659 213.862 265.028 213.283C266.398 212.704 267.583 211.914 268.583 210.913C269.584 209.912 270.374 208.727 270.953 207.358C271.533 205.989 271.822 204.488 271.822 202.855C271.822 201.222 271.533 199.721 270.953 198.352C270.427 196.983 269.663 195.798 268.662 194.797C267.714 193.796 266.556 193.033 265.186 192.506C263.87 191.927 262.448 191.637 260.92 191.637ZM308.156 192.032C306.576 192.032 305.101 192.322 303.732 192.901C302.415 193.428 301.256 194.191 300.256 195.192C299.255 196.193 298.465 197.351 297.886 198.668C297.359 199.985 297.096 201.407 297.096 202.934C297.096 204.461 297.385 205.883 297.965 207.2C298.544 208.517 299.334 209.675 300.335 210.676C301.335 211.624 302.494 212.388 303.811 212.967C305.18 213.546 306.628 213.836 308.156 213.836C309.63 213.836 311.026 213.546 312.343 212.967C313.659 212.388 314.792 211.624 315.74 210.676C316.688 209.675 317.425 208.517 317.952 207.2C318.531 205.883 318.821 204.461 318.821 202.934C318.821 201.407 318.531 199.985 317.952 198.668C317.425 197.351 316.688 196.193 315.74 195.192C314.792 194.191 313.659 193.428 312.343 192.901C311.026 192.322 309.63 192.032 308.156 192.032ZM309.104 223.553C306.786 223.553 304.574 223.237 302.468 222.605C300.414 221.92 298.676 221.025 297.254 219.919V236.904H286.273V182.473H297.254V185.633C298.676 184.527 300.414 183.658 302.468 183.026C304.574 182.394 306.786 182.078 309.104 182.078C311.842 182.078 314.449 182.605 316.925 183.658C319.453 184.711 321.638 186.16 323.482 188.003C325.325 189.846 326.8 192.032 327.906 194.56C329.012 197.088 329.565 199.8 329.565 202.697C329.565 205.646 329.012 208.385 327.906 210.913C326.8 213.441 325.325 215.653 323.482 217.549C321.638 219.392 319.453 220.867 316.925 221.973C314.449 223.026 311.842 223.553 309.104 223.553Z" fill="url(#paint0_linear_50_48)"/>
<defs>
<linearGradient id="paint0_linear_50_48" x1="277.5" y1="206.5" x2="272.345" y2="115.378" gradientUnits="userSpaceOnUse">
<stop stop-color="#21D4FD"/>
<stop offset="1" stop-color="#E40ECF"/>
</linearGradient>
</defs>
</svg>
